<svg
    width="120"
    height="31"
    viewBox="0 0 120 31"
    fill="none"
    xmlns="http://www.w3.org/2000/svg"
>
    <path
        d="M0.234375 0.9375H12.4219L19.6641 14.6719L26.5195 0.9375H37.7344V4.6875H33.9844V26.25H37.7344V30H22.7344V26.25H26.4844V9.33984L18.9844 24.375H16.6406L8.67188 9.28125V26.25H12.4219V30H0.234375V26.25H3.98438V4.6875H0.234375V0.9375ZM45.9727 24.8086C46.4883 25.3867 47.1289 25.8516 47.8945 26.2031C48.668 26.5469 49.4219 26.7188 50.1562 26.7188C51.8359 26.7188 53.1133 26.2734 53.9883 25.3828C54.8711 24.4844 55.3125 23.2109 55.3125 21.5625C55.3125 18.75 53.2812 17.3438 49.2188 17.3438V13.5938C50.1328 13.5938 50.9258 13.5234 51.5977 13.3828C52.2773 13.2344 52.8203 13.0391 53.2266 12.7969C53.6328 12.5547 53.9609 12.25 54.2109 11.8828C54.4609 11.5078 54.6289 11.125 54.7148 10.7344C54.8008 10.3359 54.8438 9.88281 54.8438 9.375C54.8438 7.67969 54.4727 6.39844 53.7305 5.53125C52.9883 4.65625 51.7969 4.21875 50.1562 4.21875C49.4219 4.21875 48.668 4.39453 47.8945 4.74609C47.1289 5.08984 46.4883 5.55078 45.9727 6.12891C46.8945 6.24609 47.6641 6.66016 48.2812 7.37109C48.9062 8.07422 49.2188 8.89844 49.2188 9.84375C49.2188 10.8828 48.8516 11.7695 48.1172 12.5039C47.3906 13.2305 46.5078 13.5938 45.4688 13.5938C44.7422 13.5938 44.0781 13.4062 43.4766 13.0312C42.875 12.6484 42.418 12.1406 42.1055 11.5078C41.6367 10.625 41.4023 9.67969 41.4023 8.67188C41.4023 7.85156 41.5586 7.04297 41.8711 6.24609C42.1836 5.44922 42.6484 4.70703 43.2656 4.01953C43.8828 3.32422 44.6133 2.71094 45.457 2.17969C46.3008 1.64844 47.2891 1.23047 48.4219 0.925781C49.5547 0.621094 50.7578 0.46875 52.0312 0.46875C53.1719 0.46875 54.2305 0.550781 55.207 0.714844C56.1836 0.878906 57.0352 1.10937 57.7617 1.40625C58.4883 1.69531 59.1406 2.04687 59.7188 2.46094C60.2969 2.875 60.7773 3.32422 61.1602 3.80859C61.543 4.29297 61.8594 4.82031 62.1094 5.39062C62.3594 5.96094 62.5391 6.53516 62.6484 7.11328C62.7578 7.68359 62.8125 8.28125 62.8125 8.90625V8.92969V8.94141V8.96484V8.97656V9V9.01172V9.03516V9.05859V9.07031V9.09375V9.10547V9.12891V9.14062L62.8008 9.16406V9.17578V9.19922V9.21094V9.23438V9.24609V9.26953V9.28125V9.30469V9.31641L62.7891 9.33984V9.35156V9.375V9.38672V9.41016V9.42188V9.44531L62.7773 9.45703V9.46875V9.49219V9.50391V9.52734V9.53906L62.7656 9.5625V9.57422V9.58594V9.60938V9.62109L62.7539 9.64453V9.65625V9.66797V9.69141L62.7422 9.70312V9.72656V9.73828V9.75L62.7305 9.77344V9.78516V9.80859V9.82031L62.7188 9.83203V9.85547V9.86719V9.87891L62.707 9.90234V9.91406V9.92578L62.6953 9.94922V9.96094V9.97266V9.99609L62.6836 10.0078V10.0195V10.043L62.6719 10.0547V10.0664V10.0898L62.6602 10.1016V10.1133V10.125L62.6484 10.1484V10.1602V10.1719L62.6367 10.1953V10.207V10.2188L62.625 10.2305V10.2539V10.2656L62.6133 10.2773V10.2891L62.6016 10.3125V10.3242V10.3359L62.5898 10.3477V10.3711L62.5781 10.3828V10.3945V10.4062L62.5664 10.4297V10.4414L62.5547 10.4531V10.4648V10.4883L62.543 10.5V10.5117L62.5312 10.5234V10.5352L62.5195 10.5586V10.5703V10.582L62.5078 10.5938V10.6055L62.4961 10.6289V10.6406L62.4844 10.6523V10.6641L62.4727 10.6758V10.6992V10.7109L62.4609 10.7227V10.7344C61.875 12.1719 60.6523 13.3945 58.793 14.4023C58.0352 14.8086 57.2305 15.1445 56.3789 15.4102C57.418 15.5742 58.3516 15.8359 59.1797 16.1953C60.0156 16.5469 60.7422 16.9922 61.3594 17.5312C61.9766 18.0703 62.4492 18.7227 62.7773 19.4883C63.1133 20.2461 63.2812 21.0938 63.2812 22.0312C63.2812 22.9062 63.1562 23.7422 62.9062 24.5391C62.6562 25.3281 62.2461 26.0898 61.6758 26.8242C61.1055 27.5508 60.3945 28.1836 59.543 28.7227C58.6914 29.2539 57.6211 29.6797 56.332 30C55.0508 30.3125 53.6172 30.4688 52.0312 30.4688C50.7578 30.4688 49.5547 30.3164 48.4219 30.0117C47.2891 29.707 46.3008 29.2891 45.457 28.7578C44.6133 28.2266 43.8828 27.6172 43.2656 26.9297C42.6484 26.2344 42.1836 25.4883 41.8711 24.6914C41.5586 23.8945 41.4023 23.0859 41.4023 22.2656C41.4023 21.2578 41.6367 20.3125 42.1055 19.4297C42.418 18.7969 42.875 18.293 43.4766 17.918C44.0781 17.5352 44.7422 17.3438 45.4688 17.3438C46.5078 17.3438 47.3906 17.7109 48.1172 18.4453C48.8516 19.1719 49.2188 20.0547 49.2188 21.0938C49.2188 22.0391 48.9062 22.8672 48.2812 23.5781C47.6641 24.2812 46.8945 24.6914 45.9727 24.8086ZM67.7344 30C67.7344 29.3516 67.7969 28.7109 67.9219 28.0781C68.0547 27.4453 68.2305 26.8516 68.4492 26.2969C68.668 25.7422 68.9453 25.1836 69.2812 24.6211C69.625 24.0508 69.9727 23.5312 70.3242 23.0625C70.6836 22.5859 71.1016 22.0977 71.5781 21.5977C72.0547 21.0898 72.5039 20.6367 72.9258 20.2383C73.3555 19.8398 73.8398 19.4141 74.3789 18.9609C74.9258 18.5 75.4102 18.1016 75.832 17.7656C76.2539 17.4297 76.7344 17.0547 77.2734 16.6406C77.4062 16.5391 77.5078 16.4609 77.5781 16.4062C78.8438 15.4219 79.7852 14.3164 80.4023 13.0898C81.0195 11.8633 81.3281 10.625 81.3281 9.375C81.3281 7.72656 80.8867 6.45703 80.0039 5.56641C79.1289 4.66797 77.8516 4.21875 76.1719 4.21875C75.4375 4.21875 74.6836 4.39453 73.9102 4.74609C73.1445 5.08984 72.5039 5.55078 71.9883 6.12891C72.9102 6.24609 73.6797 6.66016 74.2969 7.37109C74.9219 8.07422 75.2344 8.89844 75.2344 9.84375C75.2344 10.8828 74.8672 11.7695 74.1328 12.5039C73.4062 13.2305 72.5234 13.5938 71.4844 13.5938C70.7578 13.5938 70.0938 13.4062 69.4922 13.0312C68.8906 12.6484 68.4336 12.1406 68.1211 11.5078C67.6523 10.625 67.418 9.67969 67.418 8.67188C67.418 7.85156 67.5742 7.04297 67.8867 6.24609C68.1992 5.44922 68.6641 4.70703 69.2812 4.01953C69.8984 3.32422 70.6289 2.71094 71.4727 2.17969C72.3164 1.64844 73.3047 1.23047 74.4375 0.925781C75.5703 0.621094 76.7734 0.46875 78.0469 0.46875C79.6328 0.46875 81.0664 0.628906 82.3477 0.949219C83.6367 1.26172 84.707 1.6875 85.5586 2.22656C86.4102 2.75781 87.1211 3.39063 87.6914 4.125C88.2617 4.85156 88.6719 5.61328 88.9219 6.41016C89.1719 7.19922 89.2969 8.03125 89.2969 8.90625C89.2969 9.75781 89.2031 10.5625 89.0156 11.3203C88.8359 12.0703 88.5938 12.7305 88.2891 13.3008C87.9922 13.8711 87.6172 14.4219 87.1641 14.9531C86.7109 15.4844 86.25 15.9414 85.7812 16.3242C85.3203 16.707 84.7969 17.1016 84.2109 17.5078C83.625 17.9141 83.082 18.2695 82.582 18.5742C82.082 18.8711 81.5352 19.2109 80.9414 19.5938C80.3555 19.9688 79.8594 20.3125 79.4531 20.625C79.0391 20.9375 78.5469 21.2891 77.9766 21.6797C77.4141 22.0703 76.9688 22.3828 76.6406 22.6172C76.3203 22.8438 75.957 23.1484 75.5508 23.5312C75.1523 23.9141 74.7891 24.332 74.4609 24.7852C75.3516 24.5117 76.2344 24.375 77.1094 24.375H83.2031C83.5312 24.375 83.8242 24.25 84.082 24C84.3398 23.7422 84.5352 23.4141 84.668 23.0156C84.8086 22.6172 84.9102 22.2148 84.9727 21.8086C85.043 21.4023 85.0781 21.0078 85.0781 20.625V18.75H89.2969V30H67.7344ZM92.8125 0.9375H120V10.3125H115.781V8.4375C115.781 8.05469 115.746 7.66016 115.676 7.25391C115.613 6.84766 115.512 6.44531 115.371 6.04688C115.238 5.64844 115.043 5.32422 114.785 5.07422C114.527 4.81641 114.234 4.6875 113.906 4.6875H110.156V26.25H113.906V30H98.9062V26.25H102.656V4.6875H98.9062C98.5781 4.6875 98.2852 4.81641 98.0273 5.07422C97.7695 5.32422 97.5703 5.64844 97.4297 6.04688C97.2969 6.44531 97.1953 6.84766 97.125 7.25391C97.0625 7.66016 97.0312 8.05469 97.0312 8.4375V10.3125H92.8125V0.9375Z"
        fill="#0B2447"
    />
</svg>